# 3ds Max Wavefront OBJ Exporter v0.97b - (c)2007 guruware
# File Created: 06.03.2019 17:31:26

mtllib Stone-1.mtl

#
# object Stone_1
#

v  0.0449 0.9464 -0.0209
v  0.1092 0.9498 0.0232
v  0.1553 0.9709 -0.1022
v  -0.0037 0.9528 -0.0811
v  0.1807 0.9429 0.0296
v  0.2344 0.9329 0.0065
v  0.2848 0.9311 -0.0338
v  0.2758 0.9095 -0.1087
v  0.2390 0.8933 -0.1618
v  0.1576 0.9031 -0.2145
v  -0.1863 0.1761 -0.5749
v  -0.1481 0.1085 -0.6330
v  -0.4906 0.0626 -0.4682
v  -0.4955 0.1257 -0.4963
v  0.1989 0.2057 -0.4940
v  0.2241 0.1131 -0.5001
v  0.5238 0.1890 -0.3465
v  0.5675 0.0694 -0.3431
v  0.0208 0.9519 -0.1844
v  0.0664 0.9345 -0.2328
v  -0.7342 0.0289 -0.1657
v  -0.7335 0.0918 -0.1877
v  -0.6931 0.1526 0.1894
v  -0.6877 0.0105 0.1648
v  0.1546 0.3702 -0.5220
v  0.1765 0.5342 -0.4592
v  0.4659 0.5294 -0.3143
v  0.5093 0.3484 -0.3431
v  0.7312 0.3082 -0.1041
v  0.6074 0.5126 -0.1060
v  -0.2260 0.3470 -0.5776
v  -0.1279 0.5313 -0.5190
v  -0.6350 0.2827 -0.1704
v  -0.5986 0.2937 0.0950
v  -0.5918 0.4995 0.0896
v  -0.6368 0.5058 -0.1606
v  -0.0905 0.1634 0.5474
v  -0.4692 0.1726 0.3612
v  -0.4683 0.0164 0.3093
v  -0.0449 0.0197 0.5496
v  -0.0082 0.3175 0.3434
v  -0.3313 0.3165 0.2329
v  -0.5054 0.2823 -0.4635
v  0.7561 0.1669 -0.1015
v  0.7892 0.0077 -0.0858
v  0.8812 0.1633 0.1614
v  0.8993 0.0037 0.1766
v  0.8532 0.1587 0.4239
v  0.8942 0.0130 0.4204
v  0.8044 0.2877 0.1519
v  -0.0117 0.9536 -0.1399
v  0.7056 0.3158 0.4793
v  -0.0275 0.5058 0.3373
v  -0.3083 0.5058 0.2302
v  0.0126 0.7651 0.2619
v  -0.1632 0.7558 0.1535
v  -0.3237 0.7528 0.0234
v  -0.3206 0.7576 -0.1623
v  -0.4491 0.4986 -0.4101
v  -0.2181 0.7537 -0.3413
v  -0.0247 0.7588 -0.3892
v  0.1793 0.7542 -0.3430
v  0.3558 0.7513 -0.2364
v  0.4956 0.7635 -0.0861
v  0.6463 0.5058 0.1233
v  0.5253 0.7755 0.0625
v  0.5362 0.5472 0.4049
v  0.4422 0.7772 0.2659
v  0.4004 0.0170 0.6515
v  0.4029 0.1746 0.6330
v  0.4374 0.3497 0.5074
v  0.3219 0.5454 0.4637
v  0.2499 0.7835 0.3328
# 73 vertices

vn -0.2843 0.8887 0.3597
vn -0.1200 0.9317 0.3429
vn 0.1574 0.9806 -0.1171
vn -0.2891 0.9456 0.1493
vn 0.0678 0.9242 0.3758
vn 0.2858 0.9402 0.1852
vn 0.4552 0.8901 -0.0235
vn 0.4603 0.8222 -0.3348
vn 0.4402 0.7084 -0.5517
vn 0.3261 0.7470 -0.5794
vn -0.0726 0.1393 -0.9876
vn -0.0716 0.2830 -0.9564
vn -0.5790 -0.0918 -0.8102
vn -0.6016 0.0389 -0.7978
vn 0.3228 0.1412 -0.9359
vn 0.3286 0.2976 -0.8964
vn 0.5956 0.1063 -0.7962
vn 0.5958 0.1578 -0.7875
vn -0.1534 0.9159 -0.3710
vn 0.0855 0.7756 -0.6254
vn -0.9497 -0.1605 -0.2689
vn -0.9552 0.1392 -0.2610
vn -0.8404 0.3029 0.4494
vn -0.8515 -0.1325 0.5074
vn 0.3074 0.1276 -0.9430
vn 0.3064 0.3612 -0.8807
vn 0.5952 0.3872 -0.7041
vn 0.6070 0.1873 -0.7723
vn 0.8269 0.3433 -0.4453
vn 0.8157 0.4457 -0.3687
vn -0.0963 0.1721 -0.9804
vn -0.0843 0.4223 -0.9025
vn -0.9420 0.2616 -0.2102
vn -0.7906 0.3854 0.4757
vn -0.7407 0.4049 0.5362
vn -0.8662 0.4616 -0.1913
vn -0.3106 0.3836 0.8697
vn -0.4849 0.3260 0.8115
vn -0.5101 -0.2161 0.8326
vn -0.3342 -0.0891 0.9383
vn -0.3073 0.4260 0.8509
vn -0.3913 0.4451 0.8054
vn -0.6305 0.2338 -0.7401
vn 0.8343 0.1758 -0.5226
vn 0.8360 0.1352 -0.5319
vn 0.9366 0.3223 -0.1374
vn 0.9722 0.1536 -0.1765
vn 0.7315 0.3477 0.5865
vn 0.8124 0.1682 0.5583
vn 0.8440 0.5351 -0.0374
vn -0.3832 0.9172 -0.1090
vn 0.5854 0.5346 0.6095
vn -0.3590 0.1941 0.9129
vn -0.4208 0.2660 0.8673
vn -0.3246 0.6243 0.7105
vn -0.4031 0.6649 0.6288
vn -0.5248 0.7857 0.3273
vn -0.5783 0.8001 -0.1592
vn -0.5581 0.4726 -0.6820
vn -0.4093 0.7174 -0.5637
vn -0.0208 0.6002 -0.7996
vn 0.3244 0.5439 -0.7740
vn 0.5252 0.5655 -0.6359
vn 0.7007 0.6020 -0.3828
vn 0.8555 0.5162 0.0395
vn 0.7345 0.6778 0.0333
vn 0.5670 0.5565 0.6073
vn 0.4653 0.7549 0.4621
vn 0.1191 0.0724 0.9902
vn 0.0925 0.3196 0.9430
vn -0.0120 0.3817 0.9242
vn -0.0618 0.3386 0.9389
vn -0.0092 0.7103 0.7038
# 73 vertex normals

vt 0.0525 0.8859 0.0000
vt 0.0822 0.8866 0.0000
vt 0.0688 0.9343 0.0000
vt 0.0245 0.8953 0.0000
vt 0.1059 0.9004 0.0000
vt 0.1179 0.9195 0.0000
vt 0.1236 0.9433 0.0000
vt 0.1059 0.9673 0.0000
vt 0.0836 0.9791 0.0000
vt 0.0467 0.9770 0.0000
vt 0.1679 0.2441 0.0000
vt 0.1583 0.2086 0.0000
vt 0.2965 0.2329 0.0000
vt 0.2885 0.2570 0.0000
vt 0.0191 0.2431 0.0000
vt 0.0100 0.2086 0.0000
vt 0.9466 0.5502 0.0000
vt 0.9898 0.5303 0.0000
vt 0.9898 0.6714 0.0000
vt 0.9560 0.6830 0.0000
vt 0.0107 0.9324 0.0000
vt 0.0145 0.9582 0.0000
vt 0.3053 0.2429 0.0000
vt 0.3093 0.2170 0.0000
vt 0.4540 0.1951 0.0000
vt 0.4463 0.2182 0.0000
vt 0.5845 0.2488 0.0000
vt 0.5775 0.1951 0.0000
vt 0.9213 0.2033 0.0000
vt 0.9079 0.2681 0.0000
vt 0.7882 0.2717 0.0000
vt 0.7729 0.2040 0.0000
vt 0.6505 0.2120 0.0000
vt 0.6961 0.2887 0.0000
vt 0.5998 0.7526 0.0000
vt 0.5876 0.6080 0.0000
vt 0.6577 0.6469 0.0000
vt 0.6659 0.7622 0.0000
vt 0.1446 0.5768 0.0000
vt 0.1659 0.4734 0.0000
vt 0.2455 0.4890 0.0000
vt 0.2240 0.5797 0.0000
vt 0.9247 0.9757 0.0000
vt 0.9227 0.8201 0.0000
vt 0.9819 0.8081 0.0000
vt 0.9793 0.9900 0.0000
vt 0.8242 0.9675 0.0000
vt 0.8379 0.8410 0.0000
vt 0.9247 0.7153 0.0000
vt 0.9786 0.7100 0.0000
vt 0.8511 0.7263 0.0000
vt 0.5446 0.3126 0.0000
vt 0.4421 0.2968 0.0000
vt 0.3225 0.3005 0.0000
vt 0.2823 0.3147 0.0000
vt 0.1702 0.3103 0.0000
vt 0.9337 0.4247 0.0000
vt 0.9900 0.4017 0.0000
vt 0.0305 0.3046 0.0000
vt 0.1155 0.1402 0.0000
vt 0.1167 0.1997 0.0000
vt 0.0101 0.1812 0.0000
vt 0.0100 0.1189 0.0000
vt 0.8977 0.7099 0.0000
vt 0.8880 0.5621 0.0000
vt 0.8829 0.4403 0.0000
vt 0.2126 0.1431 0.0000
vt 0.2078 0.1997 0.0000
vt 0.0151 0.0653 0.0000
vt 0.1124 0.0866 0.0000
vt 0.0100 0.9120 0.0000
vt 0.2381 0.0638 0.0000
vt 0.4800 0.3259 0.0000
vt 0.4828 0.4377 0.0000
vt 0.4127 0.4478 0.0000
vt 0.4095 0.3204 0.0000
vt 0.5817 0.3184 0.0000
vt 0.5855 0.3953 0.0000
vt 0.4861 0.5553 0.0000
vt 0.4095 0.5601 0.0000
vt 0.5980 0.4712 0.0000
vt 0.3804 0.5519 0.0000
vt 0.3628 0.6207 0.0000
vt 0.2339 0.6906 0.0000
vt 0.1471 0.6969 0.0000
vt 0.3684 0.6969 0.0000
vt 0.6686 0.5211 0.0000
vt 0.5876 0.4931 0.0000
vt 0.7636 0.6132 0.0000
vt 0.7534 0.6869 0.0000
vt 0.7601 0.7642 0.0000
vt 0.8904 0.3604 0.0000
vt 0.8138 0.3640 0.0000
vt 0.7394 0.3835 0.0000
vt 0.5216 0.9703 0.0000
vt 0.5516 0.8875 0.0000
vt 0.6519 0.9007 0.0000
vt 0.6081 0.9900 0.0000
vt 0.4224 0.9368 0.0000
vt 0.4404 0.8836 0.0000
vt 0.5414 0.7736 0.0000
vt 0.6519 0.7728 0.0000
vt 0.4396 0.8037 0.0000
vt 0.3296 0.8914 0.0000
vt 0.3183 0.8700 0.0000
vt 0.3248 0.9205 0.0000
vt 0.8397 0.4330 0.0000
vt 0.8178 0.4450 0.0000
vt 0.8761 0.4330 0.0000
vt 0.8399 0.7229 0.0000
vt 0.8338 0.7590 0.0000
vt 0.8577 0.7041 0.0000
vt 0.4939 0.6551 0.0000
vt 0.4970 0.6754 0.0000
vt 0.5028 0.6346 0.0000
vt 0.7021 0.3548 0.0000
vt 0.7132 0.3815 0.0000
vt 0.6995 0.3259 0.0000
vt 0.2097 0.4689 0.0000
vt 0.2131 0.4105 0.0000
vt 0.3980 0.4148 0.0000
vt 0.3810 0.4689 0.0000
vt 0.0100 0.4376 0.0000
vt 0.0320 0.3858 0.0000
vt 0.2018 0.3307 0.0000
vt 0.3801 0.3150 0.0000
vt 0.0994 0.3362 0.0000
vt 0.3075 0.8886 0.0000
vt 0.2368 0.8415 0.0000
vt 0.2398 0.7017 0.0000
vt 0.3123 0.7073 0.0000
vt 0.3095 0.9900 0.0000
vt 0.2220 0.9224 0.0000
vt 0.1410 0.8086 0.0000
vt 0.1343 0.7177 0.0000
vt 0.1209 0.8813 0.0000
vt 0.0179 0.7724 0.0000
vt 0.0179 0.7453 0.0000
vt 0.0100 0.7938 0.0000
# 139 texture coords

g Stone_1
usemtl _Stone_1Default
s 1
f 1/1/1 2/2/2 3/3/3 4/4/4 
f 2/2/2 5/5/5 6/6/6 3/3/3 
f 6/6/6 7/7/7 8/8/8 3/3/3 
f 8/8/8 9/9/9 10/10/10 3/3/3 
f 11/11/11 12/12/12 13/13/13 14/14/14 
f 15/15/15 16/16/16 12/12/12 11/11/11 
f 17/17/17 18/18/18 16/19/16 15/20/15 
f 19/21/19 3/3/3 10/10/10 20/22/20 
f 14/23/14 13/24/13 21/25/21 22/26/22 
f 23/27/23 22/26/22 21/25/21 24/28/24 
f 25/29/25 26/30/26 27/31/27 28/32/28 
f 29/33/29 28/32/28 27/31/27 30/34/30 
f 25/35/25 31/36/31 32/37/32 26/38/26 
f 33/39/33 34/40/34 35/41/35 36/42/36 
f 37/43/37 38/44/38 39/45/39 40/46/40 
f 38/44/38 37/43/37 41/47/41 42/48/42 
f 38/44/38 23/49/23 24/50/24 39/45/39 
f 23/49/23 38/44/38 42/48/42 34/51/34 
f 22/26/22 23/27/23 34/52/34 33/53/33 
f 14/23/14 22/26/22 33/53/33 43/54/43 
f 14/14/14 43/55/43 31/56/31 11/11/11 
f 44/57/44 45/58/45 18/18/18 17/17/17 
f 11/11/11 31/56/31 25/59/25 15/15/15 
f 46/60/46 47/61/47 45/62/45 44/63/44 
f 15/20/15 25/64/25 28/65/28 17/17/17 
f 17/17/17 28/65/28 29/66/29 44/57/44 
f 48/67/48 49/68/49 47/61/47 46/60/46 
f 44/63/44 29/69/29 50/70/50 46/60/46 
f 3/3/3 19/21/19 51/71/51 4/4/4 
f 46/60/46 50/70/50 52/72/52 48/67/48 
f 53/73/53 54/74/54 42/75/42 41/76/41 
f 54/74/54 53/73/53 55/77/55 56/78/56 
f 54/74/54 35/79/35 34/80/34 42/75/42 
f 35/79/35 54/74/54 56/78/56 57/81/57 
f 36/42/36 35/41/35 57/82/57 58/83/58 
f 36/42/36 59/84/59 43/85/43 33/39/33 
f 59/84/59 36/42/36 58/83/58 60/86/60 
f 59/87/59 32/37/32 31/36/31 43/88/43 
f 32/37/32 59/87/59 60/89/60 61/90/61 
f 26/38/26 32/37/32 61/90/61 62/91/62 
f 27/31/27 26/30/26 62/92/62 63/93/63 
f 30/34/30 27/31/27 63/93/63 64/94/64 
f 30/95/30 65/96/65 50/97/50 29/98/29 
f 65/96/65 30/95/30 64/99/64 66/100/66 
f 65/96/65 67/101/67 52/102/52 50/97/50 
f 67/101/67 65/96/65 66/100/66 68/103/68 
f 7/104/7 6/105/6 68/103/68 66/100/66 
f 8/106/8 7/104/7 66/100/66 64/99/64 
f 9/107/9 8/108/8 64/94/64 63/93/63 
f 10/109/10 9/107/9 63/93/63 62/92/62 
f 20/110/20 10/111/10 62/91/62 61/90/61 
f 19/112/19 20/110/20 61/90/61 60/89/60 
f 51/113/51 19/114/19 60/86/60 58/83/58 
f 4/115/4 51/113/51 58/83/58 57/82/57 
f 1/116/1 4/117/4 57/81/57 56/78/56 
f 2/118/2 1/116/1 56/78/56 55/77/55 
f 69/119/69 70/120/70 37/121/37 40/122/40 
f 70/120/70 69/119/69 49/123/49 48/124/48 
f 70/120/70 71/125/71 41/126/41 37/121/37 
f 71/125/71 70/120/70 48/124/48 52/127/52 
f 71/128/71 72/129/72 53/130/53 41/131/41 
f 72/129/72 71/128/71 52/132/52 67/133/67 
f 72/129/72 73/134/73 55/135/55 53/130/53 
f 73/134/73 72/129/72 67/133/67 68/136/68 
f 73/134/73 5/137/5 2/138/2 55/135/55 
f 5/137/5 73/134/73 68/136/68 6/139/6 
# 66 polygons

