# 3ds Max Wavefront OBJ Exporter v0.97b - (c)2007 guruware
# File Created: 06.03.2019 17:29:39

mtllib Stone-3.mtl

#
# object Stone_3
#

v  0.7741 0.1453 0.3611
v  0.7730 0.0043 0.3463
v  0.7890 0.0037 0.0241
v  0.8514 0.1453 0.0325
v  0.4195 0.0425 -0.3011
v  0.4263 0.1420 -0.3529
v  0.0848 0.0598 -0.4933
v  0.0890 0.1496 -0.5379
v  0.4198 0.1729 0.5572
v  0.4397 0.0063 0.5575
v  -0.3277 0.0266 -0.5050
v  -0.3664 0.1453 -0.5255
v  -0.5784 0.0106 -0.2208
v  -0.6333 0.1453 -0.2840
v  -0.7679 0.1453 0.0501
v  -0.6909 0.0093 0.0284
v  -0.5366 0.0055 0.3228
v  -0.5341 0.1453 0.3029
v  -0.0211 0.1699 0.5689
v  -0.0270 -0.0008 0.6492
v  0.3647 0.3477 0.4878
v  0.7131 0.3387 0.3422
v  0.5527 0.5310 0.2351
v  0.3118 0.5391 0.3845
v  0.7531 0.3273 0.0285
v  0.5825 0.5245 -0.0067
v  0.3924 0.3335 -0.3264
v  0.3521 0.5388 -0.2662
v  0.0880 0.3339 -0.4923
v  0.0853 0.5340 -0.4081
v  -0.3088 0.3238 -0.4784
v  -0.2369 0.5258 -0.4046
v  -0.5532 0.3257 -0.2739
v  -0.4296 0.5277 -0.2478
v  -0.6820 0.3288 0.0178
v  -0.5141 0.5417 -0.0133
v  -0.4449 0.3307 0.2470
v  -0.3060 0.5365 0.1676
v  -0.0060 0.3420 0.4444
v  0.0140 0.5440 0.3118
v  0.3377 0.7214 0.0905
v  0.2066 0.7264 0.1897
v  0.3650 0.7214 -0.0284
v  0.2615 0.7154 -0.1416
v  0.0629 0.7054 -0.2703
v  -0.1592 0.7214 -0.0552
v  -0.1036 0.7214 0.0643
v  0.0808 0.7941 -0.0442
v  -0.1760 0.7214 -0.1854
v  -0.0854 0.7214 -0.2684
v  0.0294 0.7239 0.1732
# 51 vertices

vn 0.8064 0.1415 0.5742
vn 0.8204 -0.1323 0.5562
vn 0.8959 -0.3024 -0.3254
vn 0.9418 0.0396 -0.3338
vn 0.5321 -0.3719 -0.7606
vn 0.5794 -0.0674 -0.8122
vn 0.2272 -0.3731 -0.8995
vn 0.2383 -0.0718 -0.9685
vn 0.2623 0.2734 0.9255
vn 0.3178 0.1163 0.9410
vn -0.3332 -0.3975 -0.8550
vn -0.3621 -0.0395 -0.9313
vn -0.7370 -0.4552 -0.4995
vn -0.8173 -0.0502 -0.5740
vn -0.9874 0.0471 0.1508
vn -0.9165 -0.3810 0.1219
vn -0.6769 0.0325 0.7354
vn -0.6153 0.2704 0.7404
vn -0.2111 0.3915 0.8956
vn -0.1982 0.2706 0.9421
vn 0.1588 0.4982 0.8524
vn 0.6764 0.5485 0.4915
vn 0.5653 0.7390 0.3665
vn 0.1197 0.6604 0.7413
vn 0.8250 0.4761 -0.3043
vn 0.7101 0.6529 -0.2635
vn 0.5680 0.3078 -0.7633
vn 0.5307 0.5091 -0.6777
vn 0.2198 0.3037 -0.9271
vn 0.2040 0.5039 -0.8393
vn -0.3290 0.3732 -0.8674
vn -0.2745 0.5651 -0.7780
vn -0.7218 0.4369 -0.5368
vn -0.6004 0.6688 -0.4383
vn -0.8160 0.5569 0.1550
vn -0.6279 0.7639 0.1490
vn -0.4915 0.5203 0.6984
vn -0.4382 0.6557 0.6149
vn -0.2377 0.5120 0.8254
vn -0.2585 0.5919 0.7634
vn 0.4245 0.8693 0.2533
vn 0.0832 0.8917 0.4448
vn 0.4458 0.8790 -0.1693
vn 0.4062 0.7483 -0.5245
vn 0.1470 0.8198 -0.5535
vn -0.4251 0.8972 0.1196
vn -0.3184 0.8752 0.3643
vn -0.0064 0.9996 -0.0267
vn -0.3372 0.9144 -0.2238
vn -0.1681 0.8054 -0.5683
vn -0.2230 0.7823 0.5816
# 51 vertex normals

vt 0.7548 0.8296 0.0000
vt 0.8139 0.8355 0.0000
vt 0.8132 0.9772 0.0000
vt 0.7439 0.9772 0.0000
vt 0.3232 0.3309 0.0000
vt 0.5388 0.3248 0.0000
vt 0.5544 0.3709 0.0000
vt 0.3074 0.3976 0.0000
vt 0.7081 0.3138 0.0000
vt 0.7207 0.3565 0.0000
vt 0.7161 0.6569 0.0000
vt 0.7950 0.6586 0.0000
vt 0.8957 0.1970 0.0000
vt 0.8429 0.2057 0.0000
vt 0.8504 0.0100 0.0000
vt 0.8944 0.0166 0.0000
vt 0.8957 0.3664 0.0000
vt 0.8234 0.3597 0.0000
vt 0.0731 0.2110 0.0000
vt 0.0796 0.3623 0.0000
vt 0.0101 0.3373 0.0000
vt 0.0101 0.2149 0.0000
vt 0.0100 0.0666 0.0000
vt 0.0752 0.0656 0.0000
vt 0.3185 0.7770 0.0000
vt 0.3161 0.5249 0.0000
vt 0.3780 0.5249 0.0000
vt 0.3998 0.7889 0.0000
vt 0.6220 0.6721 0.0000
vt 0.6736 0.8253 0.0000
vt 0.5622 0.8251 0.0000
vt 0.5244 0.7078 0.0000
vt 0.6475 0.9600 0.0000
vt 0.5320 0.9266 0.0000
vt 0.3494 0.4800 0.0000
vt 0.5684 0.4530 0.0000
vt 0.5768 0.5452 0.0000
vt 0.4274 0.5684 0.0000
vt 0.7193 0.4413 0.0000
vt 0.7081 0.5377 0.0000
vt 0.7617 0.0109 0.0000
vt 0.7669 0.1835 0.0000
vt 0.6761 0.1576 0.0000
vt 0.6623 0.0192 0.0000
vt 0.7392 0.3219 0.0000
vt 0.6476 0.2626 0.0000
vt 0.1805 0.3516 0.0000
vt 0.1473 0.2163 0.0000
vt 0.2553 0.2154 0.0000
vt 0.2905 0.3168 0.0000
vt 0.1836 0.0776 0.0000
vt 0.3061 0.1091 0.0000
vt 0.2267 0.5529 0.0000
vt 0.2268 0.7636 0.0000
vt 0.1219 0.7503 0.0000
vt 0.1214 0.5969 0.0000
vt 0.4248 0.8268 0.0000
vt 0.4059 0.7570 0.0000
vt 0.4113 0.8790 0.0000
vt 0.5859 0.6463 0.0000
vt 0.5196 0.6615 0.0000
vt 0.6900 0.6342 0.0000
vt 0.0518 0.3943 0.0000
vt 0.1050 0.3690 0.0000
vt 0.1368 0.4606 0.0000
vt 0.0100 0.4353 0.0000
vt 0.5667 0.1052 0.0000
vt 0.5672 0.0400 0.0000
vt 0.5471 0.1568 0.0000
vt 0.4231 0.2009 0.0000
vt 0.4255 0.2601 0.0000
vt 0.4328 0.1424 0.0000
vt 0.0238 0.7350 0.0000
vt 0.0108 0.6611 0.0000
vt 0.3478 0.9900 0.0000
vt 0.2789 0.9650 0.0000
vt 0.0644 0.5357 0.0000
vt 0.0166 0.4895 0.0000
vt 0.2024 0.9252 0.0000
vt 0.2366 0.5376 0.0000
vt 0.1693 0.5492 0.0000
vt 0.1136 0.8840 0.0000
vt 0.2462 0.4179 0.0000
vt 0.2618 0.4895 0.0000
vt 0.0100 0.8114 0.0000
vt 0.1820 0.3711 0.0000
# 86 texture coords

g Stone_3
usemtl _Stone_3Default
s 1
f 1/1/1 2/2/2 3/3/3 4/4/4 
f 3/5/3 5/6/5 6/7/6 4/8/4 
f 7/9/7 8/10/8 6/7/6 5/6/5 
f 1/1/1 9/11/9 10/12/10 2/2/2 
f 11/13/11 12/14/12 8/15/8 7/16/7 
f 13/17/13 14/18/14 12/14/12 11/13/11 
f 15/19/15 14/20/14 13/21/13 16/22/16 
f 17/23/17 18/24/18 15/19/15 16/22/16 
f 19/25/19 18/26/18 17/27/17 20/28/20 
f 21/29/21 22/30/22 23/31/23 24/32/24 
f 22/30/22 21/29/21 9/11/9 1/1/1 
f 22/30/22 25/33/25 26/34/26 23/31/23 
f 25/33/25 22/30/22 1/1/1 4/4/4 
f 25/35/25 27/36/27 28/37/28 26/38/26 
f 27/36/27 25/35/25 4/8/4 6/7/6 
f 27/36/27 29/39/29 30/40/30 28/37/28 
f 27/36/27 6/7/6 8/10/8 29/39/29 
f 29/41/29 31/42/31 32/43/32 30/44/30 
f 31/42/31 29/41/29 8/15/8 12/14/12 
f 31/42/31 33/45/33 34/46/34 32/43/32 
f 33/45/33 31/42/31 12/14/12 14/18/14 
f 33/47/33 35/48/35 36/49/36 34/50/34 
f 35/48/35 33/47/33 14/20/14 15/19/15 
f 35/48/35 37/51/37 38/52/38 36/49/36 
f 37/51/37 35/48/35 15/19/15 18/24/18 
f 37/53/37 39/54/39 40/55/40 38/56/38 
f 39/54/39 37/53/37 18/26/18 19/25/19 
f 41/57/41 42/58/42 24/32/24 23/31/23 
f 43/59/43 41/57/41 23/31/23 26/34/26 
f 44/60/44 43/61/43 26/38/26 28/37/28 
f 44/60/44 28/37/28 30/40/30 45/62/45 
f 46/63/46 47/64/47 48/65/48 49/66/49 
f 50/67/50 45/68/45 30/44/30 32/43/32 
f 49/69/49 50/67/50 32/43/32 34/46/34 
f 46/70/46 49/71/49 34/50/34 36/49/36 
f 47/72/47 46/70/46 36/49/36 38/52/38 
f 51/73/51 47/74/47 38/56/38 40/55/40 
f 10/75/10 9/76/9 19/25/19 20/28/20 
f 45/77/45 50/78/50 49/66/49 48/65/48 
f 9/76/9 21/79/21 39/54/39 19/25/19 
f 45/77/45 48/65/48 43/80/43 44/81/44 
f 21/79/21 24/82/24 40/55/40 39/54/39 
f 48/65/48 42/83/42 41/84/41 43/80/43 
f 24/82/24 42/85/42 51/73/51 40/55/40 
f 48/65/48 47/64/47 51/86/51 42/83/42 
# 45 polygons

