# 3ds Max Wavefront OBJ Exporter v0.97b - (c)2007 guruware
# File Created: 06.03.2019 17:30:36

mtllib Stone-2.mtl

#
# object Stone_2
#

v  0.5327 0.2099 -0.2801
v  0.4999 0.0072 -0.2543
v  0.1974 -0.0009 -0.4425
v  0.2113 0.2174 -0.4526
v  0.7085 0.2116 0.0055
v  0.7071 0.0177 0.0485
v  -0.1432 0.0118 0.4437
v  -0.1190 0.2265 0.3925
v  -0.4667 0.2250 0.2730
v  -0.5239 0.0163 0.3148
v  -0.6755 0.0156 0.0278
v  -0.6257 0.2180 -0.0114
v  -0.3155 0.4234 0.1264
v  -0.4703 0.4315 -0.0832
v  0.5921 0.2203 0.2265
v  0.5859 0.4255 -0.0497
v  0.4729 0.4234 0.1257
v  -0.1514 0.0086 -0.4256
v  -0.1378 0.2189 -0.4494
v  -0.4404 0.0026 -0.3068
v  -0.4083 0.2210 -0.3387
v  -0.0559 0.4233 0.2083
v  0.4488 0.4222 -0.2486
v  0.2793 0.0120 0.4420
v  0.2627 0.2289 0.3971
v  0.2214 0.4278 0.2323
v  0.4501 0.5457 -0.0867
v  0.0932 0.6409 -0.1511
v  0.1603 0.5572 0.0488
v  0.3611 0.5465 0.0183
v  0.2022 0.4333 -0.3708
v  -0.0666 0.4274 -0.3774
v  -0.2812 0.4303 -0.3087
v  0.3563 0.5484 -0.2290
v  0.1940 0.5537 -0.2990
v  0.6264 0.0163 0.2545
v  -0.1329 0.5491 -0.2727
v  0.0082 0.5497 -0.3068
v  -0.0274 0.5513 0.0519
v  -0.1943 0.5496 0.0007
v  -0.2809 0.5457 -0.1459
# 41 vertices

vn 0.6782 0.1000 -0.7280
vn 0.6810 -0.1505 -0.7167
vn 0.2426 -0.1067 -0.9643
vn 0.2423 0.1201 -0.9627
vn 0.9609 0.2686 -0.0679
vn 0.9974 -0.0094 -0.0712
vn -0.1594 0.2420 0.9571
vn -0.1516 0.4779 0.8652
vn -0.5397 0.5226 0.6600
vn -0.6134 0.3030 0.7293
vn -0.9737 0.2180 -0.0659
vn -0.8951 0.4397 -0.0739
vn -0.3844 0.7670 0.5137
vn -0.6582 0.7476 -0.0886
vn 0.6497 0.4096 0.6404
vn 0.7643 0.6429 -0.0503
vn 0.4637 0.7064 0.5348
vn -0.2073 -0.0794 -0.9751
vn -0.1886 0.1429 -0.9716
vn -0.6286 -0.0076 -0.7777
vn -0.5999 0.2091 -0.7723
vn -0.1264 0.7373 0.6637
vn 0.5929 0.4433 -0.6723
vn 0.2342 0.2177 0.9475
vn 0.2028 0.4475 0.8710
vn 0.1194 0.7302 0.6727
vn 0.4455 0.8951 -0.0188
vn 0.0096 0.9993 -0.0362
vn 0.0634 0.8841 0.4630
vn 0.3037 0.8561 0.4181
vn 0.2200 0.4151 -0.8828
vn -0.1340 0.4496 -0.8832
vn -0.4674 0.5361 -0.7030
vn 0.4659 0.7018 -0.5389
vn 0.1634 0.7435 -0.6485
vn 0.7158 0.1863 0.6730
vn -0.2787 0.8270 -0.4883
vn -0.0901 0.6677 -0.7390
vn -0.1027 0.8418 0.5299
vn -0.2502 0.9139 0.3198
vn -0.4372 0.8954 -0.0838
# 41 vertex normals

vt 0.0100 0.3686 0.0000
vt 0.0156 0.2487 0.0000
vt 0.2203 0.2391 0.0000
vt 0.2148 0.3610 0.0000
vt 0.6447 0.8861 0.0000
vt 0.6752 0.9900 0.0000
vt 0.4568 0.9900 0.0000
vt 0.4575 0.8638 0.0000
vt 0.2370 0.5807 0.0000
vt 0.2470 0.7049 0.0000
vt 0.0411 0.7221 0.0000
vt 0.0100 0.6008 0.0000
vt 0.4239 0.2296 0.0000
vt 0.4158 0.0458 0.0000
vt 0.5407 0.0458 0.0000
vt 0.5441 0.2305 0.0000
vt 0.7027 0.0711 0.0000
vt 0.6987 0.2188 0.0000
vt 0.7786 0.8523 0.0000
vt 0.6070 0.7567 0.0000
vt 0.7147 0.7092 0.0000
vt 0.4179 0.2482 0.0000
vt 0.4097 0.3686 0.0000
vt 0.7817 0.4387 0.0000
vt 0.7823 0.5631 0.0000
vt 0.6019 0.5852 0.0000
vt 0.6188 0.4625 0.0000
vt 0.3704 0.5806 0.0000
vt 0.4003 0.4635 0.0000
vt 0.1111 0.8738 0.0000
vt 0.2656 0.8587 0.0000
vt 0.4773 0.7240 0.0000
vt 0.4783 0.5955 0.0000
vt 0.4613 0.7221 0.0000
vt 0.1358 0.0227 0.0000
vt 0.2764 0.0590 0.0000
vt 0.2828 0.2137 0.0000
vt 0.1358 0.2329 0.0000
vt 0.8236 0.5349 0.0000
vt 0.8838 0.7327 0.0000
vt 0.7599 0.7099 0.0000
vt 0.7674 0.5915 0.0000
vt 0.4231 0.8670 0.0000
vt 0.2100 0.4888 0.0000
vt 0.0535 0.4961 0.0000
vt 0.3630 0.4955 0.0000
vt 0.6539 0.3321 0.0000
vt 0.7770 0.3030 0.0000
vt 0.4863 0.3271 0.0000
vt 0.9136 0.5751 0.0000
vt 0.9687 0.6622 0.0000
vt 0.8000 0.9707 0.0000
vt 0.9734 0.8529 0.0000
vt 0.9879 0.7697 0.0000
vt 0.0100 0.2334 0.0000
vt 0.0182 0.0100 0.0000
vt 0.3841 0.0902 0.0000
vt 0.4142 0.2015 0.0000
vt 0.3728 0.9900 0.0000
vt 0.2670 0.9741 0.0000
vt 0.7741 0.8193 0.0000
vt 0.8236 0.9081 0.0000
vt 0.1679 0.9830 0.0000
vt 0.8229 0.0926 0.0000
vt 0.8256 0.1890 0.0000
vt 0.5893 0.2407 0.0000
vt 0.7031 0.2359 0.0000
vt 0.7817 0.2123 0.0000
vt 0.3123 0.5727 0.0000
vt 0.2057 0.5677 0.0000
vt 0.1042 0.5719 0.0000
vt 0.9126 0.9436 0.0000
vt 0.5786 0.6598 0.0000
vt 0.6459 0.6187 0.0000
vt 0.4852 0.6339 0.0000
# 75 texture coords

g Stone_2
usemtl _Stone_2Default
s 1
f 1/1/1 2/2/2 3/3/3 4/4/4 
f 5/5/5 6/6/6 2/7/2 1/8/1 
f 7/9/7 8/10/8 9/11/9 10/12/10 
f 11/13/11 10/14/10 9/15/9 12/16/12 
f 9/15/9 13/17/13 14/18/14 12/16/12 
f 15/19/15 5/5/5 16/20/16 17/21/17 
f 4/4/4 3/3/3 18/22/18 19/23/19 
f 19/24/19 18/25/18 20/26/20 21/27/21 
f 21/27/21 20/26/20 11/28/11 12/29/12 
f 13/30/13 9/11/9 8/10/8 22/31/22 
f 1/8/1 23/32/23 16/20/16 5/5/5 
f 8/10/8 7/9/7 24/33/24 25/34/25 
f 15/35/15 17/36/17 26/37/26 25/38/25 
f 27/39/27 28/40/28 29/41/29 30/42/30 
f 25/34/25 26/43/26 22/31/22 8/10/8 
f 4/4/4 31/44/31 23/45/23 1/1/1 
f 19/23/19 32/46/32 31/44/31 4/4/4 
f 21/27/21 33/47/33 32/48/32 19/24/19 
f 12/29/12 14/49/14 33/47/33 21/27/21 
f 28/40/28 27/39/27 34/50/34 35/51/35 
f 36/52/36 6/6/6 5/5/5 15/19/15 
f 37/53/37 28/40/28 35/51/35 38/54/38 
f 25/38/25 24/55/24 36/56/36 15/35/15 
f 30/57/30 29/58/29 26/37/26 17/36/17 
f 29/59/29 39/60/39 22/31/22 26/43/26 
f 39/61/39 29/41/29 28/40/28 40/62/40 
f 39/60/39 40/63/40 13/30/13 22/31/22 
f 40/64/40 41/65/41 14/18/14 13/17/13 
f 41/66/41 37/67/37 33/47/33 14/49/14 
f 37/67/37 38/68/38 32/48/32 33/47/33 
f 38/69/38 35/70/35 31/44/31 32/46/32 
f 35/70/35 34/71/34 23/45/23 31/44/31 
f 37/53/37 41/72/41 40/62/40 28/40/28 
f 16/20/16 27/73/27 30/74/30 17/21/17 
f 27/73/27 16/20/16 23/32/23 34/75/34 
# 35 polygons

